<svg xmlns="http://www.w3.org/2000/svg" viewBox="0 0 512 512"><title>Farmhouse02</title><g id="Farmhouse_02" data-name="Farmhouse 02"><g id="Farmhouse_02-2" data-name="Farmhouse 02"><path d="M405.7035,308.0641v70.0875H387.5974V308.0641h-18.9v70.0875H350.1915V308.0641h-18.9v70.0875h-18.648V273.4483c.05.0036.0972.0162.1476.0162a9.4289,9.4289,0,0,0,6.6816-2.7657l21.1644-21.159a9.4473,9.4473,0,0,0,0-13.365l-27.7956-27.7956c.0063-.126.0441-.243.0441-.3654V126.8194a9.4488,9.4488,0,0,0-9.45-9.45h-47.439a9.4494,9.4494,0,0,0-9.45,9.45v15.2649L222.1719,117.71a9.2885,9.2885,0,0,0-5.0211-2.5866,9.5763,9.5763,0,0,0-8.5266,2.5866L90.1617,236.1748a9.4451,9.4451,0,0,0,0,13.3623l21.159,21.1581a9.4293,9.4293,0,0,0,6.8355,2.6433V387.6016a9.4494,9.4494,0,0,0,9.45,9.45H415.1571a9.45,9.45,0,0,0,9.45-9.45V308.0641ZM265.4466,136.2694h28.539v53.25l-28.539-28.539ZM137.0526,258.322l78.3441-78.3432,78.3468,78.35V378.1516H255.9966v-96.948H174.8v96.948H137.0526Zm83.8971,84.94v-19.54h18.9v19.54Z"/></g></g></svg>